# xmcd
#
# Track frame offsets: 
#        150
#        16575
#        32851
#        60077
#        79496
#        96815
#        110084
#        133778
#        152229
#        177130
#        191224
#        210200
#
# Disc length: 3057 seconds
#
# Revision: 0
# Processed by: cddbd v1.5.2PL0 Copyright (c) Steve Scherf et al.
# Submitted via: ExactAudioCopy v1.3
#
DISCID=980bef0c
DTITLE=The Gourds - Old Mad Joy
DYEAR=2011
DGENRE=Country/rock
TTITLE0=I Want It So Bad
TTITLE1=Drop the Charges
TTITLE2=Two Sparrows
TTITLE3=Drop What I'm Doing
TTITLE4=Haunted
TTITLE5=Melchert
TTITLE6=Ink and Grief
TTITLE7=Peppermint City
TTITLE8=Marginalized
TTITLE9=You Must Not Know
TTITLE10=Eyes of a Child
TTITLE11=Your Benefit
EXTD=
EXTT0=
EXTT1=
EXTT2=
EXTT3=
EXTT4=
EXTT5=
EXTT6=
EXTT7=
EXTT8=
EXTT9=
EXTT10=
EXTT11=
PLAYORDER=
